<svg preserveAspectRatio="none" width="100%" height="100%" overflow="visible" style="display: block;" viewBox="0 0 31.107 69" fill="none" xmlns="http://www.w3.org/2000/svg">
<g id="Group 1089">
<path id="Star 4" d="M14.5749 16.651C14.7977 15.5922 16.3093 15.5922 16.5321 16.651L19.0771 28.7473C19.1435 29.0627 19.3578 29.3268 19.6527 29.4566L29.0284 33.5848C29.8244 33.9353 29.8244 35.0647 29.0284 35.4152L19.6527 39.5434C19.3578 39.6732 19.1435 39.9373 19.0771 40.2527L16.5321 52.349C16.3093 53.4078 14.7977 53.4078 14.5749 52.349L12.0299 40.2527C11.9635 39.9373 11.7492 39.6732 11.4543 39.5434L2.07859 35.4152C1.28255 35.0647 1.28255 33.9353 2.07859 33.5848L11.4543 29.4566C11.7492 29.3268 11.9635 29.0627 12.0299 28.7473L14.5749 16.651Z" fill="var(--fill-0, white)"/>
<ellipse id="Ellipse 28" cx="15.5534" cy="65" rx="3.88837" ry="4" fill="var(--fill-0, white)"/>
<ellipse id="Ellipse 29" cx="15.5534" cy="4" rx="3.88837" ry="4" fill="var(--fill-0, white)"/>
</g>
</svg>
