<svg preserveAspectRatio="none" width="100%" height="100%" overflow="visible" style="display: block;" viewBox="0 0 254 110.724" fill="none" xmlns="http://www.w3.org/2000/svg">
<g id="Untitled_Artwork 68 1 [Vectorized]">
<path id="Vector" d="M7.67691 21.1194C7.81042 20.9807 7.94805 20.8458 8.08958 20.7152C22.6541 7.496 42.3961 1.32404 61.9001 5.0577C65.6711 5.7796 69.9483 7.377 73.8487 8.3098C77.1489 9.09904 79.2932 9.50027 82.7313 10.0641C87.0892 10.8534 91.9867 11.5816 96.3726 11.7977C102.907 12.1197 103.729 11.736 106.965 11.3436C108.998 11.097 114.3 8.87758 114.3 8.87758C114.3 8.87758 113.437 13.2858 110.477 16.3989C107.184 19.8631 103.819 21.4543 103.819 21.4543C103.819 21.4543 105.329 22.8996 108.258 23.5504C109.368 23.797 112.204 23.8956 114.793 23.5504C116.642 23.3038 120.341 22.4407 120.341 22.4407C120.341 22.4407 118.369 25.8931 115.533 28.1125C113.581 29.6401 110.477 31.3985 106.965 32.3338C94.6048 35.6249 82.6742 34.6231 70.6177 30.7182C65.3077 28.9984 55.9513 26.7107 50.4424 26.7413C36.1416 26.8207 22.9036 34.0115 12.1654 42.9689C5.93722 48.0881 5.34227 48.0123 5.43119 56.4314C5.47749 60.8135 4.6461 65.7172 5.5105 70.2005C5.66696 72.4113 5.42154 74.2006 5.70326 76.5574C5.71287 78.0423 6.08962 83.7246 5.29447 84.5607C5.20783 84.6518 5.03013 84.6661 4.9084 84.6976C3.39364 84.1268 3.9327 78.2722 3.94239 76.6212C3.07668 74.875 3.06884 73.8243 3.87802 72.0758C4.13871 68.6405 3.84796 63.8996 3.95276 60.3244C4.17764 52.049 4.71973 43.7854 5.57785 35.5516C6.06644 30.8997 6.67858 25.6426 7.67691 21.1194ZM97.3137 29.4721C98.2343 29.0918 99.0108 28.4723 99.4075 27.5347C99.833 26.5051 99.8291 25.348 99.3968 24.3212C98.912 23.1795 98.1644 22.4853 97.1713 21.7996L97.5686 20.3385C96.8562 18.1963 95.4677 16.7163 93.0503 16.6762C92.264 16.7357 91.7477 16.7542 90.96 16.7321C90.6238 19.2701 90.3137 27.2629 91.1429 29.4562C93.2325 29.7151 95.4638 30.3116 97.3137 29.4721ZM17.0833 19.1831C17.0745 19.9792 16.9817 21.5896 17.0771 22.3004C17.5421 25.766 16.4958 25.7395 13.8857 27.5032C13.8108 26.3217 13.948 23.373 13.4986 22.6764C12.7499 22.2722 12.337 22.7209 11.6941 23.1759C11.4933 25.024 10.437 36.8629 10.968 37.8987C11.437 38.0302 11.7451 37.8443 12.218 37.6396C12.8044 37.4437 13.1832 37.3271 13.7381 37.0334C13.7461 35.8658 13.6229 31.4727 14.0634 30.6008C14.6765 30.0501 16.2432 29.3418 17.0605 28.9317C17.2783 30.8016 17.6033 32.7335 17.7972 34.5837C19.0312 34.0542 19.3614 33.6345 20.1994 32.5675C20.1496 30.8302 19.8325 19.4373 19.3751 18.2999L19.2272 18.2484C18.4887 18.552 17.8006 18.8321 17.0833 19.1831ZM67.0775 13.4247C67.2823 12.7842 67.488 12.0926 67.7289 11.4687C66.371 11.0372 66.0871 10.9876 64.6792 10.947C60.3333 11.6125 57.6554 14.2921 58.316 18.8398C58.5571 20.4994 59.5673 21.955 60.8815 22.931C61.7501 23.6228 64.7745 24.7092 65.7325 24.2179L65.8548 23.9965C65.8255 23.1252 65.7646 22.408 65.6737 21.5402C63.0789 21.1349 60.7298 19.9447 61.2233 16.8799C61.4011 15.7748 61.9943 14.842 62.9188 14.1924C64.1792 13.3556 65.3536 13.104 66.8395 13.3759C66.9193 13.3904 66.9985 13.4068 67.0775 13.4247ZM29.5168 23.7372C30.1287 24.7726 30.2002 25.6638 30.597 26.7362C31.3381 26.3945 32.4645 25.9148 33.1507 25.5326C32.6339 23.8393 29.1497 14.4885 28.2619 13.7673L27.9232 13.7729C27.1012 14.0104 26.5089 14.2089 25.7296 14.5779C25.1835 16.6262 22.9713 28.1539 23.5298 29.5712C23.9955 29.9022 25.5924 29.9461 25.8659 29.481C26.4162 28.5449 25.8149 25.8062 26.7015 25.0925C27.7777 24.6761 28.5012 24.2032 29.5168 23.7372ZM42.0485 22.6531C42.0166 22.2191 42.0335 21.5446 42.03 21.0913C41.9323 20.5055 42.0373 20.4877 41.6809 20.2228C41.1674 20.1233 40.6569 20.1998 40.1331 20.2739C35.7042 20.9004 34.9268 15.5448 37.9923 13.3936C38.7438 12.8663 40.1622 12.8528 41.0933 12.7877C41.143 12.1931 41.1996 11.1873 41.2984 10.6308C36.9661 10.4803 33.3094 12.1395 33.164 16.9951C33.0974 18.772 33.7546 20.5001 34.9852 21.7839C35.9536 22.794 37.4346 23.5944 38.84 23.5734C39.6555 23.5612 41.2621 23.5744 41.9854 23.37L42.1351 23.1954L42.0485 22.6531ZM47.3861 22.8378C47.4828 21.69 47.4425 20.4615 47.5322 19.4598C50.3496 21.9015 50.4575 24.0413 53.1465 20.7725C52.1743 19.6026 49.1908 17.0793 47.9148 15.9702C49.3875 14.347 51.2188 12.714 52.7988 11.1617C52.5581 10.9802 51.2641 9.9177 51.1279 9.88812C49.7961 10.6661 48.2411 12.0465 47.0208 13.0465C46.9191 12.2224 46.7417 11.025 46.7222 10.2233C45.7371 10.1606 44.991 10.1396 44.0046 10.1569C44.1318 11.8436 44.6028 22.1272 45.0819 22.9827C45.6825 23.3046 46.5337 23.0994 47.1595 22.9116C47.2356 22.8888 47.3112 22.8641 47.3861 22.8378ZM81.5503 14.9547C80.734 14.6907 79.9217 14.4187 79.0575 14.3666C77.8196 16.433 77.45 20.3448 77.9641 22.6943C78.6051 25.6241 81.337 28.0039 84.4283 27.3316C87.5125 26.5931 87.97 21.8084 87.9261 19.3116L88.1908 16.3309C87.2269 16.0713 86.6775 15.908 85.6907 15.8325C85.3325 17.6535 84.8413 22.9272 83.5879 23.7778C83.2042 24.0368 82.7328 24.1318 82.2786 24.0416C79.8186 23.5782 81.1748 16.7166 81.5503 14.9547ZM68.9809 24.5174C71.2461 24.8406 73.1413 25.1254 75.3841 25.5681C76.077 25.5031 75.9747 25.4613 76.0603 24.7382C76.1479 23.9984 76.1474 23.0353 75.6355 22.4418C74.7682 22.0099 72.9386 21.9183 71.9003 21.7736C71.6546 18.3308 72.0099 15.8211 72.7832 12.4799L70.5341 11.9827C68.9988 14.7672 68.5169 21.3529 68.9809 24.5174Z" fill="var(--fill-0, #FEFDE7)"/>
<path id="Vector_2" d="M3.87802 72.0753C3.99263 72.9791 4.01291 75.6876 3.94239 76.6207C3.07668 74.8746 3.06884 73.8239 3.87802 72.0753Z" fill="var(--fill-0, #FEE345)"/>
<path id="Vector_3" d="M93.5414 23.4748C95.1516 23.5733 97.7731 24.3044 96.0393 26.3253C93.1161 27.9263 93.5342 25.4329 93.5414 23.4748Z" fill="var(--fill-0, #FEFDE7)"/>
<path id="Vector_4" d="M93.3457 18.8075C93.5259 18.8709 93.7047 18.9387 93.8817 19.0109C94.3123 19.189 94.5705 19.3413 94.7506 19.77C94.7835 20.1496 94.755 20.196 94.5646 20.509C94.0574 20.7824 93.9249 20.9041 93.4162 20.5867C93.1097 20.0293 93.2454 19.4282 93.3457 18.8075Z" fill="var(--fill-0, #FEFDE7)"/>
<path id="Vector_5" d="M27.4808 18.9105C27.9691 19.2984 28.3099 20.4216 28.2931 21.0486C28.0966 21.4315 28.0989 21.3289 27.5794 21.5285L27.3442 21.6691L27.2034 21.5972C27.1625 21.1395 27.3362 19.3134 27.4808 18.9105Z" fill="var(--fill-0, #FEFDE7)"/>
<path id="Vector_6" d="M80.7729 41.2419C83.2334 40.7074 95.0941 38.8866 95.8865 42.0799C95.8463 42.4577 95.8353 42.5003 95.6148 42.8073C95.1257 43.2944 94.251 44.0624 93.7543 44.4702C88.7171 48.6063 91.9506 49.3218 96.5417 49.0453C97.8366 48.9674 99.1854 48.9962 100.556 48.6369C102.414 47.9964 104.524 47.7464 106.418 47.1276C109.087 46.2553 111.907 45.6227 114.455 44.4239C114.955 44.7762 115.172 44.8887 115.729 45.1474C114.846 45.709 113.555 46.1177 112.626 46.5831C110.944 47.426 101.578 52.0276 108.387 52.7839C108.794 52.8291 110.656 52.3987 111.159 52.2789C113.093 52.8141 112.612 52.4866 114.331 52.3842C113.43 52.7915 111.065 53.727 110.638 54.5696C110.379 55.1856 110.347 55.0249 110.441 55.5881C110.706 55.8856 110.881 56.0718 111.176 56.3389C109.96 56.7561 108.748 57.1836 107.54 57.6213C105.625 58.541 102.8 59.5386 100.808 60.3877C99.5787 60.9116 97.2178 61.4059 96.0036 60.7132C93.6713 59.3825 94.5695 58.3144 94.0352 56.6375C93.6763 56.2125 93.7854 56.2161 93.3244 56.0624C92.1794 56.2106 90.9639 56.9596 89.9303 57.3141C86.7625 58.4005 81.1069 61.1723 77.8635 60.2787C76.4173 60.2876 74.4665 59.3933 73.1846 58.7742C68.786 57.2277 66.3627 56.6821 61.772 56.0037C61.4 56.0522 59.7349 55.8933 59.3188 55.8562C52.7967 55.546 45.4258 56.4661 39.2905 58.7923C38.9222 58.4793 38.7591 58.3742 38.5585 57.9399C38.5542 57.3683 38.5125 57.5748 38.8492 57.0543L38.797 56.8614C38.2632 56.9839 38.1142 57.0513 37.5921 56.9038C36.7551 56.582 36.2586 56.4176 35.6266 55.7777C36.5911 55.2273 37.6119 54.3936 38.75 53.7703C42.6101 51.6564 46.3734 50.0044 50.5024 48.5346C51.6358 48.0042 54.518 46.9663 55.7296 46.9288C56.9507 46.2222 61.1423 45.1719 62.6208 44.8368C62.3854 45.9277 59.2009 48.0425 58.2051 48.8451C59.2959 48.5088 59.7848 48.2684 60.911 48.6163C61.8873 48.153 62.4204 47.8737 63.4717 47.5696C64.5173 47.2671 65.8498 47.2263 66.7378 46.7076C69.5346 45.0383 71.925 45.7059 74.3843 45C75.7611 44.1401 79.5236 42.6019 80.8191 41.5208L80.7729 41.2419Z" fill="var(--fill-0, #CF99EE)"/>
<path id="Vector_7" d="M55.7296 46.9294C56.9507 46.2228 61.1423 45.1725 62.6208 44.8374C62.3854 45.9283 59.2009 48.0431 58.2051 48.8457C59.2959 48.5094 59.7848 48.269 60.911 48.6169C61.8873 48.1536 62.4204 47.8744 63.4717 47.5702C64.5172 47.2677 65.8498 47.2269 66.7378 46.7082C67.1762 46.9707 68.7338 46.849 69.3786 46.8933C70.2448 47.5142 71.3353 47.8812 71.4932 48.6378C71.0272 50.181 67.5717 50.5702 66.3628 51.0731C67.7301 51.5113 68.9022 51.7576 70.3367 51.8964C70.6657 51.9283 71.6466 52.0113 71.6748 52.408C71.7843 53.7215 72.7374 53.8896 73.9399 54.0323L74.2306 54.1292C74.1644 54.3706 74.1375 54.3848 73.9714 54.5807C70.3343 54.661 66.71 55.0393 63.1346 55.7116C62.7482 55.7833 62.0262 55.8273 61.772 56.0044C61.4 56.0528 59.7349 55.8939 59.3188 55.8568C52.7967 55.5466 45.4258 56.4667 39.2905 58.7929C38.9222 58.48 38.7591 58.3748 38.5585 57.9405C38.5542 57.3689 38.5125 57.5754 38.8492 57.0549L38.797 56.862C38.2632 56.9845 38.1142 57.052 37.5921 56.9044C36.7551 56.5826 36.2586 56.4182 35.6266 55.7783C36.5911 55.2279 37.6119 54.3942 38.75 53.7709C42.6101 51.657 46.3734 50.005 50.5024 48.5352C51.6358 48.0048 54.518 46.9669 55.7296 46.9294Z" fill="var(--fill-0, #95DBFF)"/>
<path id="Vector_8" d="M66.7386 46.7075C67.177 46.9699 68.7346 46.8482 69.3794 46.8926C70.2456 47.5134 71.3361 47.8804 71.494 48.637C71.0281 50.1802 67.5725 50.5694 66.3637 51.0723C65.4864 51.3043 64.3677 51.8778 63.488 52.1939C61.2308 53.0051 58.9905 53.9335 56.6152 54.278C52.4193 52.711 59.3764 49.4174 60.9118 48.6162C61.8881 48.1528 62.4212 47.8736 63.4725 47.5694C64.5181 47.2669 65.8506 47.2261 66.7386 46.7075Z" fill="var(--fill-0, #CF99EE)"/>
<path id="Vector_9" d="M50.5024 48.5347C50.5871 49.2391 50.2408 48.7289 50.2546 49.6935C48.0695 52.0668 45.1961 54.3096 42.2068 55.5546C41.6347 55.7929 39.0958 56.6942 38.797 56.8615C38.2632 56.984 38.1142 57.0514 37.5921 56.9039C36.7551 56.5821 36.2586 56.4177 35.6266 55.7778C36.5911 55.2274 37.6119 54.3937 38.75 53.7704C42.6101 51.6564 46.3734 50.0045 50.5024 48.5347Z" fill="var(--fill-0, #EBB7FF)"/>
<path id="Vector_10" d="M59.3196 55.8557C61.6754 54.7418 65.7647 53.896 68.3889 53.6453C69.9286 53.4981 72.6248 54.8423 73.9407 54.0312L74.2314 54.1281C74.1652 54.3695 74.1383 54.3837 73.9722 54.5796C70.3351 54.6599 66.7108 55.0382 63.1354 55.7105C62.749 55.7822 62.027 55.8262 61.7728 56.0033C61.4008 56.0517 59.7357 55.8928 59.3196 55.8557Z" fill="var(--fill-0, #55ABDD)"/>
<path id="Vector_11" d="M50.5027 48.5347C51.6362 48.0043 54.5184 46.9663 55.73 46.9289C54.4484 48.1254 51.857 48.8541 50.2549 49.6935C50.2412 48.7289 50.5875 49.2391 50.5027 48.5347Z" fill="var(--fill-0, #FF8D9D)"/>
<path id="Vector_12" d="M66.7385 46.7084C69.5354 45.0391 71.9258 45.7067 74.3851 45.0008C75.5712 46.0707 77.0633 45.1928 78.5242 45.4898C76.1556 47.2494 70.1286 50.0744 77.8087 51.0591C79.7109 51.303 81.982 50.9809 83.9248 51.1313C87.1352 51.0829 90.5913 51.2426 93.7477 51.1972C92.9622 51.6786 92.0172 52.3088 91.2054 52.7113C88.6593 53.9738 87.356 55.7626 84.8684 57.2931C82.7925 58.5703 79.6002 59.1776 77.8643 60.2795C76.4181 60.2884 74.4673 59.3941 73.1854 58.775C68.7868 57.2284 66.3635 56.6829 61.7727 56.0045C62.027 55.8274 62.7489 55.7834 63.1354 55.7118C66.7107 55.0395 70.3351 54.6612 73.9722 54.5808C74.1383 54.3849 74.1652 54.3708 74.2314 54.1294L73.9407 54.0324C72.7382 53.8897 71.785 53.7217 71.6755 52.4081C71.6474 52.0115 70.6665 51.9284 70.3374 51.8966C68.903 51.7578 67.7308 51.5114 66.3636 51.0732C67.5725 50.5703 71.028 50.1811 71.494 48.6379C71.3361 47.8813 70.2455 47.5143 69.3793 46.8935C68.7346 46.8491 67.1769 46.9709 66.7385 46.7084Z" fill="var(--fill-0, #EBB7FF)"/>
<path id="Vector_13" d="M73.9722 54.5804C75.3469 54.8225 78.5635 51.0689 80.1978 53.0001C81.1396 54.113 79.5623 55.4978 78.7225 56.1386C77.2106 57.2923 75.0028 58.2358 73.1854 58.7745C68.7868 57.2279 66.3635 56.6824 61.7727 56.004C62.027 55.827 62.7489 55.783 63.1354 55.7113C66.7107 55.039 70.3351 54.6607 73.9722 54.5804Z" fill="var(--fill-0, #81FFFF)"/>
<path id="Vector_14" d="M114.456 44.4242C114.955 44.7765 115.173 44.8889 115.729 45.1477C114.847 45.7092 113.555 46.1179 112.626 46.5834C110.944 47.4263 101.578 52.0278 108.388 52.7842C108.794 52.8293 110.657 52.399 111.159 52.2792C113.094 52.8143 112.612 52.4869 114.331 52.3844C113.431 52.7918 111.065 53.7273 110.638 54.5699C110.211 54.5982 108.832 54.5679 108.636 54.61C107.755 53.2197 105.831 52.9872 104.311 52.9285C101.82 52.8326 99.32 52.5264 96.8458 52.3739C97.9687 51.7337 99.8224 50.8417 100.504 49.7717C100.767 49.3571 100.677 49.0893 100.557 48.6372C102.414 47.9966 104.524 47.7467 106.418 47.1278C109.087 46.2556 111.908 45.623 114.456 44.4242Z" fill="var(--fill-0, #EBB7FF)"/>
<path id="Vector_15" d="M111.159 52.2791C113.094 52.8143 112.612 52.4868 114.331 52.3844C113.431 52.7917 111.065 53.7272 110.638 54.5699C110.211 54.5981 108.832 54.5679 108.636 54.6099C109.268 53.8743 110.136 53.6513 111.159 52.2791Z" fill="var(--fill-0, #E6DE8F)"/>
<path id="Vector_16" d="M80.7735 41.2419C83.234 40.7074 95.0947 38.8866 95.8871 42.0799C95.8469 42.4577 95.8359 42.5003 95.6153 42.8073C92.6955 40.9005 84.7368 42.8171 81.6169 44.0169C80.691 44.373 79.5123 45.2068 78.524 45.489C77.0632 45.1921 75.571 46.0699 74.3849 45C75.7617 44.1401 79.5242 42.6019 80.8197 41.5208L80.7735 41.2419Z" fill="var(--fill-0, #FF8D9D)"/>
<path id="Vector_17" d="M94.0353 56.6373C96.7184 55.8062 98.0704 57.177 100.772 57.4558C102.22 57.6053 106.621 57.0962 107.54 57.6212C105.625 58.5408 102.801 59.5385 100.808 60.3875C99.5788 60.9114 97.2179 61.4058 96.0037 60.713C93.6714 59.3824 94.5696 58.3143 94.0353 56.6373Z" fill="var(--fill-0, #FFD598)"/>
<path id="Vector_18" d="M19.6462 51.2197C20.9674 49.8873 22.6143 50.4521 24.4361 50.8392C26.0291 51.1775 27.4894 52.1299 28.3866 53.4901C28.3915 53.9924 29.4838 55.6539 29.9204 55.9245L29.8519 56.0478C30.9106 57.5196 32.0972 62.3466 32.1963 64.2176C36.2901 64.2312 41.166 60.2883 45.208 61.8771C45.495 62.1945 46.0845 62.7846 45.967 63.1585C44.9543 66.385 41.7872 69.8463 41.0101 73.1438C41.9185 76.3954 49.1284 81.6143 47.6461 84.2289C47.2194 84.9814 46.0834 85.507 45.2786 85.7037C42.9917 86.2625 37.8167 84.7975 35.4537 84.2612C33.9614 87.8293 31.7289 92.7203 34.4508 96.2109C35.2611 96.172 36.6583 96.045 36.6635 97.2892C36.6702 98.8694 33.5326 103.016 31.796 101.97C30.7441 100.69 32.1817 98.1905 33.2457 97.1942C30.4311 93.5946 31.7812 89.7819 33.4448 85.7767C33.6092 85.3808 34.6625 84.4132 34.5804 84.0923C31.4389 82.9728 24.1178 100.06 22.8992 88.4291C19.8711 90.3004 18.8928 92.8767 17.6195 95.9201C15.428 101.157 22.0838 100.09 19.3232 103.253C15.9813 107.082 12.0245 104.399 16.8536 101.005C16.0546 99.9275 15.4828 98.5734 15.7857 97.218C16.5741 93.6905 19.0334 88.8588 22.7559 87.7922C22.581 86.4053 22.3027 83.4421 21.7878 82.2391C19.987 80.7143 17.1652 79.7217 14.873 79.1381C8.81562 77.5958 12.8887 75.2012 16.1554 73.3282C14.8895 71.5028 14.1886 69.2612 11.6816 68.888C9.2631 68.528 7.60647 69.5576 6.16823 71.3465C7.04406 73.1724 7.35395 75.0519 5.70303 76.5576C5.42131 74.2007 5.66673 72.4114 5.51028 70.2007C7.41683 68.0648 11.1637 67.1714 13.8471 68.2223C15.5029 68.8706 16.6009 70.9595 17.2422 72.5274C18.002 72.4933 19.9562 70.8894 20.5357 70.3326C21.1081 67.1535 19.9175 62.1562 19.9362 58.831C19.9571 58.2543 20.1068 57.5709 20.4491 57.0963C21.777 55.2546 24.7596 58.2722 25.8865 59.1851L30.5159 62.9366C29.4823 59.0538 27.9482 53.0988 23.7293 51.6857C22.8334 52.6032 22.7501 53.3494 22.0477 54.1936C21.5293 54.7547 19.8647 55.7921 19.0769 55.6654C15.9686 55.1654 18.4137 52.4626 19.6462 51.2197Z" fill="var(--fill-0, #FFE564)"/>
<path id="Vector_19" d="M25.2718 74.8442C27.3121 75.0183 27.436 77.4393 25.3413 78.1857C23.5215 78.4968 23.1461 75.8749 25.2718 74.8442Z" fill="var(--fill-0, #141438)"/>
<path id="Vector_20" d="M33.7217 70.4177C36.1538 70.2678 35.9392 72.1392 34.6049 73.5216C32.8138 73.7651 32.4881 71.6963 33.7217 70.4177Z" fill="var(--fill-0, #141438)"/>
<path id="Vector_21" d="M31.2139 73.0805C32.037 73.4693 32.1333 74.2973 31.7086 75.0364C31.4257 75.5208 30.9578 75.8693 30.4126 76.0017C29.7767 76.1504 29.5396 76.0285 28.9967 75.7027C28.6868 75.2684 28.3198 74.8694 28.5806 74.3518C29.0688 74.2263 29.6603 74.673 30.3942 74.679C30.6637 74.4906 31.0151 73.4911 31.2139 73.0805Z" fill="var(--fill-0, #141438)"/>
<path id="Vector_22" d="M67.7679 94.1069C70.5523 89.508 68.6902 82.3423 62.6015 81.961C61.9354 81.9193 60.3778 82.284 59.7217 82.4654C56.6198 83.3226 53.319 82.454 51.1811 80.014C44.7149 72.5515 51.6505 60.9311 60.2677 59.0675C66.4949 57.7207 71.8934 61.2082 73.2595 67.4719C73.401 68.4146 73.4122 70.6828 72.5348 71.2365L72.2698 71.2142C71.8214 70.6775 71.2937 70.0078 70.7891 69.5468C64.6794 64.6204 55.8709 68.9048 56.3217 76.7096C56.4688 79.2552 59.2176 79.8958 61.2613 79.5529C63.7788 79.1133 65.9261 78.1333 68.513 78.8804C70.0826 79.3335 71.4948 79.7151 72.7954 80.7836C79.0888 85.9539 79.5435 94.35 74.988 100.713C73.383 99.9211 72.2972 98.4933 70.9043 97.3794C69.9049 96.58 68.8761 95.8484 67.8357 95.107C67.612 94.6348 67.6948 94.7087 67.7679 94.1069Z" fill="var(--fill-0, #FFFEF8)"/>
<path id="Vector_23" d="M73.2589 67.4716C73.4004 68.4143 73.4116 70.6824 72.5342 71.2362L72.2692 71.2139C71.8208 70.6771 71.2931 70.0074 70.7885 69.5464C71.54 69.231 72.2441 68.0965 73.2589 67.4716Z" fill="var(--fill-0, #F4EBB9)"/>
<path id="Vector_24" d="M159.492 73.7142C161.11 71.935 165.687 69.046 168.098 68.709C171.536 68.2287 174.235 69.8742 176.891 71.7655C178.765 73.633 179.081 76.0418 179.085 78.551C179.088 79.7519 179.069 80.9529 179.027 82.1532C179.041 82.941 179.014 83.7031 178.99 84.4902C178.934 85.6573 178.922 86.826 178.955 87.994C179.012 89.6962 178.986 91.4211 179.696 93.009C179.944 93.5647 181.062 94.1756 180.971 94.7539C180.198 95.2794 177.525 95.2564 176.564 95.0827C174.917 94.7855 173.486 93.7596 172.315 92.6069C169.615 94.2153 166.919 95.0657 163.796 94.2809C159.78 92.9061 157.151 89.088 159.048 84.9364C159.603 83.6364 161.05 82.1715 162.239 81.4276C165.422 79.4378 168.004 79.7953 171.485 80.5472C171.606 77.9918 172.285 75.2255 171.696 72.5686C171.52 71.6884 171.048 71.2215 170.347 70.7551C166.291 68.0575 163.146 78.7619 161.403 79.2401C160.538 78.6911 159.708 74.8326 159.492 73.7142ZM164.989 91.4224C166.872 93.6274 169.693 93.1965 171.938 91.948C170.755 87.7463 170.99 86.2937 171.278 82.0402C167.235 81.4101 165.599 82.6656 164.668 86.6247C164.249 88.5318 164.179 89.6183 164.989 91.4224Z" fill="var(--fill-0, #FEFCE9)"/>
<path id="Vector_25" d="M159.048 84.9363C159.413 85.0066 160.159 84.8971 160.323 84.9761C161.716 85.6485 163.033 86.6852 164.668 86.6246C164.249 88.5317 164.179 89.6182 164.989 91.4223C164.588 91.8946 164.03 93.6086 163.796 94.2808C159.78 92.906 157.151 89.0879 159.048 84.9363Z" fill="var(--fill-0, #F4EBB9)"/>
<path id="Vector_26" d="M176.892 71.7662C178.766 73.6337 179.081 76.0424 179.086 78.5516C179.089 79.7526 179.07 80.9536 179.028 82.1538C178.922 81.779 178.103 80.0047 177.8 78.7898C177.497 77.5749 176.937 76.4471 176.69 76.2005C176.444 75.9539 176.32 75.8306 175.827 75.7073C175.334 75.584 175.211 75.584 174.841 75.584C174.471 75.584 174.471 75.2141 174.471 74.9675C174.471 74.7209 175.347 73.3688 176.892 71.7662Z" fill="var(--fill-0, #F4EBB9)"/>
<path id="Vector_27" d="M177.339 86.7908C177.247 86.408 177.96 85.4272 178.991 84.4902C178.935 85.6573 178.922 86.826 178.956 87.994L178.86 87.8359C178.024 87.4227 177.43 87.1736 177.339 86.7908Z" fill="var(--fill-0, #F4EBB9)"/>
<path id="Vector_28" d="M99.025 73.3833C99.074 73.333 99.1236 73.2834 99.1738 73.2343C101.275 71.1799 105.937 68.1543 108.959 68.3093C111.327 68.2957 115.057 70.0725 116.643 71.7728C119.532 74.8703 118.547 83.3436 118.438 87.3567C118.527 89.1399 118.476 90.8748 119.124 92.5352C119.398 93.2365 120.357 93.7395 120.51 94.3068C119.925 95.4797 115.399 94.7131 114.295 94.1402C114.111 94.0446 113.93 93.9447 113.751 93.8404C113.121 93.543 112.369 92.8077 111.875 92.3229C109.469 93.5863 106.92 94.7187 104.208 94.1918C97.418 92.8729 95.6224 85.1117 101.559 81.259C104.945 79.0609 107.342 79.5232 110.99 80.2408C111.248 78.2246 111.927 72.6544 110.733 71.2286C106.626 66.3243 102.822 77.6394 101.181 78.8969C101.054 78.9172 100.914 78.9706 100.848 78.9036C99.9863 78.0384 99.1456 74.5065 99.025 73.3833ZM106.815 92.5549C108.78 92.8707 109.741 92.5936 111.455 91.6417C110.137 86.8027 110.631 86.3798 110.776 81.7543C110.259 81.6507 109.485 81.4833 108.971 81.5213C105.12 81.6052 103.976 85.4821 103.844 88.7222C103.769 90.5435 105.052 92.1233 106.815 92.5549Z" fill="var(--fill-0, #FEFEF7)"/>
<path id="Vector_29" d="M113.752 93.8403C113.761 93.8324 113.77 93.8246 113.779 93.8168C115.191 92.062 117.138 90.3805 118.258 88.4469C118.372 88.2508 118.423 87.5723 118.438 87.3566C118.528 89.1398 118.477 90.8747 119.125 92.5351C119.398 93.2363 120.358 93.7394 120.511 94.3066C119.926 95.4796 115.4 94.713 114.296 94.1401C114.112 94.0445 113.931 93.9446 113.752 93.8403Z" fill="var(--fill-0, #F4EBB9)"/>
<path id="Vector_30" d="M184.784 35.5694C189.822 34.8582 195.989 35.3454 201.134 35.2043C209.443 34.9764 217.852 35.4533 226.16 35.534C226.607 35.5384 227.485 35.7089 227.834 35.9695L227.795 36.1524C227.042 36.5286 224.288 36.4806 223.256 36.555C218.812 36.876 199.121 37.587 196.273 39.1655C196.733 39.8915 204.465 39.4262 207.092 41.9343L207.151 42.1893C207.014 42.3456 206.818 42.5682 206.562 42.5265C201.985 41.7803 197.264 40.3853 192.6 40.5821C186.958 40.5666 181.704 41.1805 176.157 41.5522C175.095 41.699 173.64 41.9321 172.595 41.9423C172.147 42.1104 168.377 42.5501 167.683 42.6428C164.996 43.0093 162.314 43.4243 159.642 43.8877C151.335 45.3338 143.814 47.0556 135.648 48.9294L127.194 51.2227C125.782 51.6141 124.011 52.1914 122.618 52.4977C124.197 50.1103 134.497 46.8557 137.464 45.9184C140.667 44.9063 146.229 43.9937 149.617 43.8824C151.206 43.4148 156.51 43.2096 157.516 42.5033C155.759 42.3772 154.183 42.6387 152.131 42.4199C156.601 41.1192 164.525 40.8975 167.768 37.1035C168.408 36.9769 169.081 36.9221 169.731 36.8539C174.75 36.3266 179.771 36.2455 184.784 35.5694Z" fill="var(--fill-0, #FFFAD6)"/>
<path id="Vector_31" d="M167.767 37.1038C168.407 36.9772 169.081 36.9224 169.731 36.8542C174.75 36.3268 179.77 36.2457 184.783 35.5696C184.28 36.6647 179.29 38.21 177.947 38.8967C176.716 39.3139 175.58 39.7914 174.334 40.1925C173.195 40.5599 171.998 41.344 170.795 41.4825C169.21 41.665 159.357 42.0025 158.529 42.4572L157.827 42.5413L157.516 42.5036C155.758 42.3775 154.183 42.639 152.131 42.4201C156.6 41.1195 164.524 40.8978 167.767 37.1038Z" fill="var(--fill-0, #FFD598)"/>
<path id="Vector_32" d="M122.618 52.4969C124.197 50.1096 134.497 46.8549 137.464 45.9177C140.667 44.9055 146.229 43.993 149.617 43.8816C149.546 43.9754 149.391 44.1571 149.275 44.1868C145.563 45.1283 141.901 46.1025 138.311 47.4619C137.265 47.8581 136.318 48.1906 135.365 48.8109C135.492 48.8953 135.499 48.9216 135.648 48.9287L127.194 51.2219C125.782 51.6133 124.011 52.1906 122.618 52.4969Z" fill="var(--fill-0, #FFD598)"/>
<path id="Vector_33" d="M173.663 41.0919L182.512 39.7484C185.332 39.3487 190.522 38.192 192.599 40.5816C186.957 40.5661 181.704 41.18 176.156 41.5517C175.095 41.6985 173.64 41.9316 172.594 41.9418L173.186 41.7213C173.325 41.5191 173.371 41.421 173.405 41.1779L173.663 41.0919Z" fill="var(--fill-0, #FFD598)"/>
<path id="Vector_34" d="M172.594 41.9418L173.186 41.7213C173.325 41.5191 173.371 41.421 173.405 41.1779L173.663 41.0919C174.006 41.6503 175.336 41.0065 176.156 41.5517C175.095 41.6985 173.64 41.9316 172.594 41.9418Z" fill="var(--fill-0, #FEFDE7)"/>
<path id="Vector_35" d="M157.827 42.5407L158.529 42.4566C158.338 42.9294 158.002 43.5607 157.412 43.4126C157.417 42.9723 157.523 42.9763 157.827 42.5407Z" fill="var(--fill-0, #81FFFF)"/>
<path id="Vector_36" d="M158.155 38.087C160.443 37.7113 162.748 37.6034 165.049 37.3069C165.923 37.1944 166.893 37.0724 167.768 37.1037C164.524 40.8977 156.6 41.1194 152.131 42.4201C154.183 42.6389 155.758 42.3774 157.516 42.5035C156.51 43.2098 151.205 43.415 149.617 43.8826C146.228 43.9939 140.667 44.9065 137.464 45.9186C134.497 46.8559 124.197 50.1105 122.618 52.4979C119.703 53.4538 113.873 55.1173 111.176 56.3395C110.881 56.0724 110.706 55.8862 110.441 55.5887C110.347 55.0256 110.379 55.1863 110.638 54.5703C111.065 53.7276 113.43 52.7921 114.331 52.3848C112.612 52.4872 113.093 52.8147 111.159 52.2795C110.656 52.3993 108.794 52.8297 108.388 52.7845C101.578 52.0282 110.944 47.4266 112.626 46.5837C113.555 46.1183 114.846 45.7096 115.729 45.148C115.172 44.8893 114.955 44.7768 114.456 44.4245C115.584 43.8436 116.244 43.6627 117.443 43.3008C117.767 44.3948 121.506 47.2282 122.467 48.1506C122.765 48.4368 124.531 47.6391 124.979 47.4527C123.943 46.2818 122.957 45.4951 121.781 44.4769L121.836 44.3096L121.917 44.3608C122.242 44.5627 122.302 44.5942 122.692 44.5968C124.211 44.0376 127.875 42.9896 129.572 43.0184C130.021 43.026 130.341 43.5209 130.635 43.8828C132.127 43.4433 135.784 42.8422 137.426 42.5655C140.505 42.047 143.29 41.2369 146.264 40.6396L152.374 39.3516C153.206 39.1736 153.841 39.1563 154.662 38.9021C155.77 38.7782 157.48 39.0261 158.155 38.087Z" fill="var(--fill-0, #3FFFFF)"/>
<path id="Vector_37" d="M216.296 72.3212C221.819 71.781 226.128 75.4284 226.934 80.8375C226.068 81.3187 221.962 83.8717 221.462 83.7104C221.096 83.224 221.51 78.0708 220.331 76.1474C217.461 71.4718 214.232 76.3942 213.259 79.3985C211.649 84.3674 211.559 90.1609 213.743 94.9504C214.392 96.3937 215.524 97.1111 216.947 97.5812C218.499 96.8865 219.155 95.9474 219.895 94.4591C220.735 91.8793 220.508 90.3736 221.086 88.3141C222.084 88.2533 225.653 91.7738 226.245 92.6606C226 93.288 225.498 94.1323 225.102 94.6448C221.346 99.5044 215.174 100.284 210.287 96.5583C207.496 94.5579 206.333 91.061 205.726 87.8218C204.492 81.2334 209.595 73.4008 216.296 72.3212Z" fill="var(--fill-0, #FFFEF5)"/>
<path id="Vector_38" d="M71.7103 74.901C73.8559 75.237 78.1451 75.0204 80.4561 75.0814C80.7188 75.0883 81.9269 74.9726 81.9992 74.8088C82.6994 73.2247 81.9363 68.6656 82.3581 67.2597C83.6589 65.7732 86.169 64.986 87.7248 63.6574C88.4174 63.0662 90.1319 60.5128 90.7955 61.1493C90.9516 61.7787 90.8913 64.879 90.8998 65.7001L91.0365 75.0195C92.5802 75.0102 95.3328 75.2514 96.7872 75.0377L97.2129 75.1328C97.4821 75.5987 97.6393 79.1129 97.0779 79.336C96.3049 79.6433 94.6791 79.4425 93.8367 79.3692C92.6194 79.3521 91.8799 79.3654 90.6502 79.476C90.6453 80.1069 90.6532 83.8735 90.4405 84.2802C90.3829 83.7497 90.4403 83.2833 90.4849 82.7551C88.6705 84.2085 87.4132 84.7755 84.9776 84.5867C84.32 84.5357 82.6767 84.087 82.2079 84.2774L81.8789 84.6482C82.063 83.113 82.0567 80.4154 82.1 78.7909C79.9796 78.8297 77.1557 78.9028 75.0845 78.779C74.0168 78.0458 72.5709 76.014 71.7103 74.901Z" fill="var(--fill-0, #F4EBB9)"/>
<path id="Vector_39" d="M96.7874 75.0371L97.2131 75.1322C97.4823 75.598 97.6395 79.1123 97.0782 79.3354C96.3051 79.6426 94.6793 79.4419 93.8369 79.3686C95.0081 78.1169 95.7732 76.2533 96.7874 75.0371Z" fill="var(--fill-0, #FEFEF7)"/>
<path id="Vector_40" d="M228.913 84.5069C228.941 82.1103 229.305 79.0831 230.366 76.9932C231.878 74.0148 233.588 70.9671 236.951 69.8907C239.525 69.0663 242.157 68.7678 244.619 69.949C246.801 70.92 248.195 73.1993 249.017 75.3416C249.498 76.5984 250.751 79.8356 250.154 81.1231C250.038 81.3744 249.868 81.533 249.607 81.623C248.236 82.0976 237.938 81.7368 235.59 81.7885C235.328 82.0792 235.326 82.2273 235.248 82.6094C235.075 82.8995 234.171 83.6679 233.885 84.0557C233.487 84.593 232.339 84.5292 231.764 84.3538C229.875 83.7776 230.283 83.9224 229.171 85.0134C229.08 84.8424 228.996 84.6814 228.913 84.5069ZM237.419 80.0807C238.985 80.1753 242.595 80.0496 244.272 80.0095C244.14 77.2074 243.791 75.1389 242.3 72.6932C241.064 71.4524 239.847 70.8924 238.461 72.463C236.52 74.6647 235.781 77.1278 235.377 79.9867L237.419 80.0807Z" fill="var(--fill-0, #FEFEF7)"/>
<path id="Vector_41" d="M244.619 69.9488C246.801 70.9198 248.195 73.1991 249.017 75.3415C249.498 76.5982 250.751 79.8354 250.154 81.1229C250.038 81.3743 249.868 81.5328 249.607 81.6229C248.236 82.0975 237.938 81.7367 235.59 81.7884C236.405 81.5848 236.741 80.8433 237.42 80.0805C238.985 80.1751 242.595 80.0494 244.272 80.0094C244.141 77.2073 243.791 75.1387 242.3 72.693C243.218 71.9063 242.109 71.1176 244.619 69.9488Z" fill="var(--fill-0, #F4EBB9)"/>
<path id="Vector_42" d="M60.7251 107.531C54.9141 107.273 48.2957 103.116 46.6842 97.1459C46.4582 96.309 46.101 94.0122 46.5708 93.2472C47.1325 93.2974 48.8876 95.6404 49.6312 96.1853C54.371 99.659 59.8512 99.7994 64.9523 96.987C66.3388 95.9993 66.8743 95.5541 67.7673 94.1063C67.6942 94.7082 67.6114 94.6343 67.8351 95.1064C68.8756 95.8479 69.9043 96.5795 70.9037 97.3788C72.2966 98.4928 73.3824 99.9205 74.9874 100.713C72.0089 104.748 65.7327 107.787 60.7251 107.531Z" fill="var(--fill-0, #FFFEF8)"/>
<path id="Vector_43" d="M67.767 94.1066C67.694 94.7084 67.6111 94.6345 67.8349 95.1067C68.8753 95.8481 69.9041 96.5797 70.9034 97.3791C72.2964 98.493 73.3822 99.9208 74.9872 100.713C72.0086 104.749 65.7324 107.788 60.7248 107.531C62.53 104.64 64.8159 100.403 64.9521 96.9873C66.3385 95.9995 66.874 95.5543 67.767 94.1066Z" fill="var(--fill-0, #F4EBB9)"/>
<path id="Vector_44" d="M90.4857 82.755C90.4412 83.2832 90.3838 83.7496 90.4413 84.2801C90.4641 88.9405 90.0457 93.6663 90.4536 98.283C90.6711 100.745 92.8316 100.733 94.4108 99.5604C94.7318 99.3222 95.6251 98.6727 95.9688 98.6026C97.0704 99.8305 94.8496 102.801 93.8446 103.642C91.9553 105.218 89.5209 105.985 87.0694 105.779C81.1059 105.22 81.6875 100.938 81.7008 96.3625C81.7026 93.704 81.7214 91.0457 81.7572 88.3875C81.7793 87.2045 81.8885 85.7835 81.8797 84.6481L82.2088 84.2773C82.6776 84.0869 84.3209 84.5356 84.9785 84.5866C87.414 84.7754 88.6714 84.2084 90.4857 82.755Z" fill="var(--fill-0, #FFFFFA)"/>
<path id="Vector_45" d="M187.968 65.6827C188.621 68.0629 188.88 69.2619 189.202 71.7054C189.308 71.5176 189.418 71.3322 189.532 71.1493C191.636 67.716 195.462 66.5527 198.936 68.7183C197.786 71.1757 197.71 76.1933 196.078 78.9339C195.777 79.4394 195.617 79.5158 195.366 79.8893C195.514 77.8019 195.907 72.175 193.873 70.9799C192.861 70.3859 190.373 71.9528 190.042 72.9357C188.554 77.3505 189.69 82.7204 189.279 87.3606C189.243 87.7668 189.27 89.0564 188.757 89.071C187.447 89.1086 183.45 89.4165 182.386 88.9299C182.155 88.1186 182.28 85.3125 182.272 84.3598C182.227 79.4819 182.723 74.3886 181.406 69.6418C183.945 68.9063 186.177 67.6614 187.968 65.6827Z" fill="var(--fill-0, #F4EBB9)"/>
<path id="Vector_46" d="M151.26 57.9945C152.954 52.6371 157.635 49.6334 162.679 47.8604C165.723 46.7911 168.786 46.3925 171.741 47.8778C174.027 49.0264 173.351 50.9846 173.96 52.9754C175.496 56.5073 180.386 54.8491 182.684 53.9707C182.881 54.7427 181.292 58.3138 182.298 60.098C182.908 61.1798 183.695 61.3594 184.012 61.9771C179.366 63.2739 173.127 61.3969 171.506 56.4463C171.244 55.6456 171.27 54.7929 171.261 53.9583C170.52 52.8005 169.691 52.1068 168.243 52.1988C164.229 52.4536 162.065 54.7479 159.539 57.4329L159.358 57.374C159.562 56.7836 160.383 56.4116 160.55 55.8803C160.453 55.8215 157.749 55.682 157.357 55.8141C155.852 56.3221 154.315 57.008 152.82 57.5874C152.34 57.7741 151.58 57.9141 151.327 58.023L151.26 57.9945Z" fill="var(--fill-0, #FEFEF7)"/>
<path id="Vector_47" d="M31.9177 46.0454C34.9571 41.0638 40.6305 34.8655 46.3482 32.7833C46.823 32.6104 47.4493 32.4913 47.917 32.7456C49.246 34.4936 43.5939 42.3459 42.3537 44.1331C43.3374 43.6703 46.8656 42.2278 47.3085 43.9481C46.1954 45.9417 42.2594 47.8134 40.3308 48.9604C37.4812 50.6552 34.6424 52.4067 31.9652 54.3676C31.3161 54.843 30.6012 55.6139 29.9204 55.924C29.4839 55.6534 28.3916 53.9919 28.3866 53.4896C28.8156 52.2777 29.4914 51.0733 30.0507 49.8899C30.6373 48.5609 31.163 47.2894 31.9177 46.0454Z" fill="var(--fill-0, #81FFFF)"/>
<path id="Vector_48" d="M42.3537 44.133C43.3374 43.6703 46.8656 42.2278 47.3085 43.948C46.1954 45.9417 42.2594 47.8133 40.3308 48.9604C37.4812 50.6551 34.6424 52.4066 31.9652 54.3675C31.3161 54.8429 30.6012 55.6139 29.9204 55.924C29.4839 55.6533 28.3916 53.9918 28.3866 53.4895C28.8156 52.2776 29.4914 51.0732 30.0507 49.8898C31.8051 49.8478 33.7328 49.0828 35.4062 48.5547C37.3034 47.956 39.2424 46.3451 40.6815 44.9581C41.1524 44.6897 41.848 44.3767 42.3537 44.133Z" fill="var(--fill-0, #EBB7FF)"/>
<path id="Vector_49" d="M31.9187 46.0459C33.4999 46.6629 34.1753 45.1171 35.4628 44.5422C37.5569 43.6071 39.465 42.9389 41.3332 41.5326C40.8892 42.4455 39.657 44.0885 40.6825 44.9586C39.2434 46.3457 37.3044 47.9566 35.4072 48.5552C33.7338 49.0833 31.8061 49.8483 30.0517 49.8903C30.6383 48.5614 31.164 47.2899 31.9187 46.0459Z" fill="var(--fill-0, #95DBFF)"/>
<path id="Vector_50" d="M151.26 57.9937L151.327 58.0222C151.58 57.9133 152.34 57.7733 152.82 57.5866C154.314 57.0072 155.851 56.3213 157.357 55.8133C157.749 55.6812 160.452 55.8207 160.549 55.8795C160.383 56.4108 159.562 56.7828 159.357 57.3732L159.538 57.4321C158.697 58.659 157.566 60.4053 157.054 61.8419C155.749 65.4948 155.918 70.1277 155.748 74.0036C155.712 74.8372 155.72 77.7984 155.551 78.418C155.085 78.8103 155.098 79.2629 154.782 79.6248C154.055 80.4563 152.153 82.1182 151.536 82.7347C150.92 83.3512 149.81 83.1046 149.44 82.9813C149.07 82.858 149.07 82.7347 148.738 82.3379C148.976 81.6378 148.99 79.4215 149.319 78.2351C146.632 77.8581 146.025 78.2285 143.697 79.602L143.504 79.5149C143.141 79.6293 143.22 79.5149 143.029 79.2822C142.837 79.0496 142.654 77.8978 142.51 76.8793C142.363 76.6978 142.241 76.5458 142.141 76.4233C142.447 76.3468 142.53 76.3289 142.806 76.1799L142.536 76.0436C144.319 75.4422 147.452 76.4354 149.331 76.7386C149.259 73.4983 149.469 70.0631 149.363 66.8009C149.296 64.7491 150.36 59.901 151.26 57.9937Z" fill="var(--fill-0, #F7F1D0)"/>
<path id="Vector_51" d="M198.936 68.719C202.172 70.3364 202.257 73.5823 202.319 76.6828C202.379 78.6934 202.395 80.7052 202.368 82.7166C202.306 86.5536 201.71 92.8609 204.81 95.6124C204.543 96.4677 202.592 95.8883 201.979 95.6886C194.428 93.2278 195.151 86.4314 195.366 79.89C195.617 79.5164 195.777 79.44 196.078 78.9345C197.71 76.1939 197.786 71.1763 198.936 68.719Z" fill="var(--fill-0, #FFFCDE)"/>
<path id="Vector_52" d="M128.433 64.4068C129.517 66.6008 129.613 69.4614 129.875 71.9246C130.55 68.7456 132.608 65.4055 136.604 66.2163C137.419 66.3817 137.989 66.846 138.947 66.9831L139.001 66.9902C140.536 66.8203 141.374 66.4411 142.709 65.6149C143.697 65.8177 143.397 67.799 143.185 68.5193C141.63 73.8134 138.547 71.8531 135.281 71.6062C133.091 72.1037 130.504 73.7113 130.186 76.1166C128.44 75.8311 126.063 79.3099 123.339 78.0492L123.206 77.7978C123.127 74.385 123.256 71.2982 121.814 68.1785C122.461 67.8837 123.409 67.6209 124.141 67.3064C125.885 66.5576 126.988 65.5862 128.433 64.4068Z" fill="var(--fill-0, #FEFEF7)"/>
<path id="Vector_53" d="M139 66.99C140.536 66.82 141.374 66.4409 142.708 65.6147C143.697 65.8174 143.397 67.7988 143.185 68.5191C141.629 73.8131 138.546 71.8528 135.281 71.606C135.829 70.4248 138.376 68.3478 139 66.99Z" fill="var(--fill-0, #F4EBB9)"/>
<path id="Vector_54" d="M148.739 82.3385C149.194 82.8586 149.437 82.847 150.057 82.9819C150.677 83.1168 150.92 82.9819 151.29 82.612C151.66 82.2421 151.537 82.3654 151.783 82.1188C152.03 81.8722 151.948 82.0464 152.185 81.8423C153.025 81.1171 154.055 80.457 154.782 79.6255C155.098 79.2635 155.085 78.811 155.551 78.4187C155.673 81.4698 155.787 83.8186 155.771 86.9253C155.604 91.2627 155.746 93.8529 158.301 97.5683C159.419 99.1947 156.703 99.3273 155.789 99.249C152.421 98.9602 150.5 98.2652 148.758 95.339L148.509 94.7897C148.169 94.7728 147.187 95.5193 146.708 95.7333C144.599 96.676 141.948 96.9166 139.762 96.1768C139.872 95.819 141.41 93.7762 141.827 92.9962C143.909 95.2473 146.081 94.8034 148.504 93.4911C148.272 90.2903 148.536 85.5206 148.739 82.3385Z" fill="var(--fill-0, #FFFFFC)"/>
<path id="Vector_55" d="M148.759 95.3384C149.923 92.4204 154.097 89.2346 155.771 86.9247C155.605 91.262 155.746 93.8522 158.301 97.5676C159.42 99.194 156.704 99.3267 155.79 99.2483C152.421 98.9595 150.5 98.2646 148.759 95.3384Z" fill="var(--fill-0, #F4EBB9)"/>
<path id="Vector_56" d="M137.035 79.0666C138.663 77.2266 140.226 76.5624 142.537 76.0444L142.807 76.1807C142.53 76.3297 142.447 76.3476 142.142 76.4241C142.241 76.5466 142.364 76.6986 142.51 76.8801C142.654 77.8986 142.807 79.0582 142.954 80.0636C143.219 79.6609 143.142 79.6302 143.505 79.5157L143.697 79.6029C143.203 80.1399 143.012 80.3627 142.607 80.9774C140.622 85.0074 139.673 88.7495 141.827 92.9964C141.41 93.7764 139.872 95.8192 139.762 96.177C134.332 93.295 132.668 88.0859 135.045 82.3573C135.517 81.2224 136.187 79.9534 137.035 79.0666Z" fill="var(--fill-0, #F4EBB9)"/>
<path id="Vector_57" d="M137.035 79.0666C138.663 77.2266 140.226 76.5624 142.536 76.0444L142.807 76.1807C142.53 76.3297 142.447 76.3476 142.142 76.4241C142.241 76.5466 142.364 76.6986 142.51 76.8801C142.654 77.8986 142.906 79.1597 143.029 79.283C143.152 79.4063 143.141 79.6302 143.505 79.5157L143.697 79.6029C143.202 80.1399 143.011 80.3627 142.607 80.9774C139.849 80.9313 139.423 79.797 137.035 79.0666Z" fill="var(--fill-0, #FEFEF7)"/>
<path id="Vector_58" d="M120.602 34.867C119.308 35.7182 117.089 36.1352 116.662 36.7476L116.856 37.0971C118.368 37.3618 119.621 37.1579 121.065 37.2482C123.935 37.4279 127.045 37.4412 129.846 38.0308C126.717 38.7747 122.938 38.7747 119.758 39.4993C114.979 40.5886 110.391 42.7752 105.912 44.361C103.964 45.0895 99.6107 47.0648 97.5129 46.663C97.2137 46.6058 97.0459 46.2818 96.9302 46.0332C96.9591 43.7949 105.212 39.7594 107.393 38.9945C108.656 38.4263 110.016 37.8341 111.366 37.5166C112.911 36.8218 118.977 35.1414 120.602 34.867Z" fill="var(--fill-0, #FFD598)"/>
<path id="Vector_59" d="M105.912 44.3604C103.964 45.0889 99.6107 47.0642 97.5129 46.6624C97.2137 46.6052 97.0459 46.2812 96.9302 46.0326C96.9591 43.7943 105.212 39.7588 107.393 38.9939C106.831 40.7953 102.704 40.9214 103.195 43.0573C103.246 43.2813 103.917 43.771 104.151 43.9448C104.861 43.9924 105.343 43.9386 105.912 44.3604Z" fill="var(--fill-0, #FF8D9D)"/>
<path id="Vector_60" d="M120.602 34.867C119.308 35.7182 117.089 36.1352 116.662 36.7476L116.856 37.0971C115.368 37.0489 112.25 37.644 111.365 37.5166C112.911 36.8218 118.976 35.1414 120.602 34.867Z" fill="var(--fill-0, #81FFFF)"/>
<path id="Vector_61" d="M123.207 77.7972L123.339 78.0485C126.063 79.3093 128.44 75.8304 130.186 76.116C130.211 77.4188 130.092 79.1198 130.023 80.4469C129.869 83.1862 129.929 85.9613 129.8 88.7032C129.754 89.6572 129.747 91.1794 129.583 92.0962C127.255 92.1968 125.33 92.0382 123.039 91.9913C122.852 89.1002 123.209 86.944 123.161 84.2186C123.162 82.078 123.177 79.9375 123.207 77.7972Z" fill="var(--fill-0, #F4EBB9)"/>
<path id="Vector_62" d="M123.206 77.7972L123.339 78.0485C126.062 79.3093 128.44 75.8304 130.186 76.116C130.211 77.4188 130.092 79.1198 130.022 80.4469C126.911 81.6648 125.896 82.8689 123.349 84.3212L123.161 84.2186C123.162 82.078 123.177 79.9375 123.206 77.7972Z" fill="var(--fill-0, #FEFDE7)"/>
<path id="Vector_63" d="M182.684 53.9702C185.592 52.1452 192.048 50.1161 195.384 51.036C195.736 51.1329 196.013 51.1435 196.253 51.4006C195.875 51.9059 194.733 52.3275 194.171 52.6861C192.705 53.6198 191.498 55.0276 190.615 56.519C188.965 59.3052 187.107 60.9457 184.012 61.9766C183.695 61.3589 182.909 61.1793 182.298 60.0975C181.293 58.3133 182.881 54.7422 182.684 53.9702Z" fill="var(--fill-0, #F4EBBF)"/>
<path id="Vector_64" d="M155.821 38.1467C156.403 37.9954 157.524 38.0666 158.154 38.0867C157.48 39.0258 155.769 38.778 154.662 38.9019C153.841 39.156 153.206 39.1734 152.374 39.3513L146.264 40.6393C143.29 41.2366 140.505 42.0468 137.426 42.5653C135.784 42.8419 132.127 43.443 130.635 43.8826C130.341 43.5207 130.021 43.0258 129.572 43.0181C127.875 42.9893 124.21 44.0373 122.691 44.5965C121.724 43.8773 121.389 43.5524 121.436 42.2859C129.852 40.5126 138.373 39.2742 146.946 38.5781C149.79 38.3495 152.976 38.0415 155.821 38.1467Z" fill="var(--fill-0, #FFD598)"/>
<path id="Vector_65" d="M155.822 38.1467C156.404 37.9954 157.525 38.0666 158.155 38.0867C157.48 39.0258 155.77 38.778 154.663 38.9019L154.723 38.731C155.331 38.518 155.27 38.386 155.822 38.1467Z" fill="var(--fill-0, #E6DE8F)"/>
<path id="Vector_66" d="M228.913 84.5068C228.996 84.6812 229.08 84.8423 229.171 85.0133C230.283 83.9223 229.875 83.7774 231.764 84.3536C232.339 84.5291 233.487 84.5928 233.885 84.0556C234.171 83.6677 235.075 82.8993 235.248 82.6092C235.327 85.9536 236.051 91.4518 239.305 93.2294C239.008 93.599 237.923 94.8652 237.934 95.2998C232.198 94.7204 229.104 89.965 228.913 84.5068Z" fill="var(--fill-0, #F4EBB9)"/>
<path id="Vector_67" d="M245.235 84.7883L247.061 84.8256L250.581 84.7938L250.491 86.1712C249.489 92.5597 243.991 95.5032 237.934 95.2993C237.923 94.8647 239.008 93.5985 239.304 93.2289C240.299 93.4794 241.452 92.9653 242.179 92.2956C244.342 90.3007 245.065 87.6515 245.235 84.7883Z" fill="var(--fill-0, #FEFEF7)"/>
<path id="Vector_68" d="M247.061 84.8257L250.581 84.7938L250.492 86.1712C249.114 86.2313 248.454 85.4434 247.153 84.8656L247.061 84.8257Z" fill="var(--fill-0, #F4EBB9)"/>
<path id="Vector_69" d="M120.602 34.867C123.057 34.3948 134.986 32.9535 136.226 35.1377C136.283 36.9367 131.17 37.9409 129.846 38.0308C127.045 37.4412 123.935 37.428 121.065 37.2483C119.62 37.1579 118.368 37.3619 116.856 37.0972L116.662 36.7476C117.089 36.1352 119.308 35.7182 120.602 34.867Z" fill="var(--fill-0, #3FFFFF)"/>
<path id="Vector_70" d="M62.6217 44.837C63.6974 43.6957 78.4478 41.4235 80.7737 41.2421L80.82 41.521C79.5244 42.6021 75.7619 44.1403 74.3852 45.0002C71.9259 45.7061 69.5355 45.0385 66.7386 46.7078C65.8506 47.2264 64.5181 47.2672 63.4726 47.5698C62.4212 47.8739 61.8882 48.1531 60.9119 48.6165C59.7856 48.2686 59.2967 48.509 58.2059 48.8453C59.2017 48.0427 62.3863 45.9279 62.6217 44.837Z" fill="var(--fill-0, #0673F7)"/>
<path id="Vector_71" d="M59.9839 37.9492C65.702 35.0331 70.0618 38.0633 62.6114 41.1602C62.407 41.2442 62.1979 41.3161 61.9851 41.3757C60.5327 41.9987 57.0361 43.1153 55.7042 41.9254C54.8812 40.1268 58.7114 38.5333 59.9839 37.9492Z" fill="var(--fill-0, #FF8D9D)"/>
<path id="Vector_72" d="M59.9839 37.9482C60.2291 38.3202 60.273 38.3759 60.307 38.8201C60.2033 39.3199 59.7335 39.6627 59.3731 40.0511C60.2173 39.9927 61.4562 39.8293 62.2395 40.0551C62.5622 40.3414 62.4939 40.1986 62.5287 40.5806C62.3409 40.9776 62.2752 41.0453 61.9851 41.3747C60.5327 41.9977 57.0361 43.1143 55.7042 41.9244C54.8812 40.1258 58.7114 38.5324 59.9839 37.9482Z" fill="var(--fill-0, #81FFFF)"/>
<path id="Vector_73" d="M11.2686 59.922C10.6998 57.422 11.6776 56.6181 13.8351 58.1482C15.5539 60.1909 16.6677 63.1078 16.8363 65.7577C14.6217 64.7549 11.9439 62.3018 11.2686 59.922Z" fill="var(--fill-0, #95DBFF)"/>
<path id="Vector_74" d="M11.2686 59.922C10.6998 57.422 11.6776 56.6181 13.8351 58.1482C13.7323 58.8686 15.2877 61.8039 15.6689 63.115C14.7157 62.3251 12.849 60.1566 11.904 59.8161C11.7087 59.8453 11.456 59.875 11.2686 59.922Z" fill="var(--fill-0, #EBB7FF)"/>
<path id="Vector_75" d="M32.564 59.5734C33.0308 57.9089 34.2836 56.7775 35.6266 55.778C36.2587 56.4179 36.7551 56.5823 37.5922 56.9041C38.1142 57.0516 38.2633 56.9842 38.7971 56.8617L38.8493 57.0546C38.5125 57.5751 38.5542 57.3685 38.5586 57.9401C38.7591 58.3745 38.9222 58.4796 39.2905 58.7926C37.5134 59.515 35.7762 60.3707 34.0006 61.073C33.8097 61.1485 33.3668 60.722 33.2366 60.5948C33.1855 60.4582 32.6782 59.7407 32.564 59.5734Z" fill="var(--fill-0, #55ABDD)"/>
<path id="Vector_76" d="M32.564 59.5734C33.0308 57.9089 34.2836 56.7775 35.6266 55.778C36.2587 56.4179 36.7551 56.5823 37.5922 56.9041C36.6936 57.5 33.8107 59.7822 33.2366 60.5948C33.1855 60.4582 32.6782 59.7407 32.564 59.5734Z" fill="var(--fill-0, #0673F7)"/>
<path id="Vector_77" d="M29.233 39.8073C29.6157 39.9437 29.8619 39.9847 30.0566 40.3354C30.2271 41.0228 29.8484 41.67 29.7649 42.4632L30.6917 42.9798C30.4462 43.673 27.9993 48.4428 27.6161 48.6779C27.2172 48.6686 27.3743 48.7133 27.0215 48.4812C25.6494 45.9461 27.6241 41.8218 29.233 39.8073Z" fill="var(--fill-0, #CF99EE)"/>
<path id="Vector_78" d="M121.437 42.2856C120.4 42.4098 118.555 43.0145 117.443 43.3003C116.273 45.1281 113.19 47.8407 115.78 48.7038C118.369 49.5669 122.144 49.9181 124.534 48.7038C126.924 47.4895 130.206 47.1009 130.329 46.2378C130.452 45.3747 127.74 45.498 126.137 45.2514C124.534 45.0048 124.041 44.7582 123.424 44.5116C122.808 44.265 121.39 43.5521 121.437 42.2856Z" fill="var(--fill-0, #81FFFF)"/>
<path id="Vector_79" d="M49.8891 57.7313C51.6626 57.3417 52.6625 57.5775 53.384 59.286C52.2839 61.1553 51.25 61.4923 49.23 60.794C48.288 60.6576 46.1801 60.0546 45.8294 59.0943L45.966 58.8101C46.7423 58.2052 48.8564 57.8679 49.8891 57.7313Z" fill="var(--fill-0, #81FFFF)"/>
<path id="Vector_80" d="M29.2329 39.8079C30.2713 38.6816 34.42 35.4323 35.9533 35.8209L36.1026 36.022C35.9564 36.898 34.5631 37.5555 33.9093 38.4118C32.7688 39.9058 31.7319 41.4218 30.6916 42.9804L29.7648 42.4637C29.8483 41.6706 30.227 41.0233 30.0565 40.3359C29.8618 39.9853 29.6156 39.9442 29.2329 39.8079Z" fill="var(--fill-0, #95DBFF)"/>
<path id="Vector_81" d="M51.4931 40.956C51.9194 41.0107 52.2717 41.2333 52.255 41.6879C51.8657 42.4099 50.5349 42.9349 49.7776 43.2799C49.3447 43.1864 49.0253 42.7419 48.7134 42.4009C49.6775 41.3478 50.1564 41.1982 51.4931 40.956Z" fill="var(--fill-0, #EBB7FF)"/>
<path id="Vector_82" d="M26.8479 49.6374C27.3063 49.7273 27.3232 49.7659 27.532 50.1417C27.5414 50.6052 27.4627 50.7129 27.2412 51.1261C26.9099 50.9811 26.6124 50.902 26.4618 50.581C26.4058 50.2006 26.6285 49.9619 26.8479 49.6374Z" fill="var(--fill-0, #CF99EE)"/>
</g>
</svg>
